<mxfile host="app.diagrams.net" modified="2023-05-16T06:14:44.682Z" agent="Mozilla/5.0 (Windows NT 10.0; Win64; x64) AppleWebKit/537.36 (KHTML, like Gecko) Chrome/113.0.0.0 Safari/537.36" etag="tHhnpwtwpgosnvjVcqU7" version="21.2.9" type="github">
  <diagram name="第 1 页" id="JrkWJ4Jx0kNqlZPdR1VC">
    <mxGraphModel dx="724" dy="439" grid="1" gridSize="10" guides="1" tooltips="1" connect="1" arrows="1" fold="1" page="1" pageScale="1" pageWidth="827" pageHeight="1169" math="0" shadow="0">
      <root>
        <mxCell id="0" />
        <mxCell id="1" parent="0" />
        <mxCell id="ZbtbXV12n3VK8uoN93jd-1" value="&lt;font style=&quot;font-size: 14px;&quot;&gt;核心处理器&lt;br&gt;控制单元&lt;/font&gt;" style="rounded=0;whiteSpace=wrap;html=1;" vertex="1" parent="1">
          <mxGeometry x="360" y="360" width="90" height="150" as="geometry" />
        </mxCell>
        <mxCell id="ZbtbXV12n3VK8uoN93jd-2" value="软件升级&lt;br&gt;处理单元" style="rounded=0;whiteSpace=wrap;html=1;" vertex="1" parent="1">
          <mxGeometry x="230" y="340" width="80" height="40" as="geometry" />
        </mxCell>
        <mxCell id="ZbtbXV12n3VK8uoN93jd-3" value="软件升级接口" style="rounded=0;whiteSpace=wrap;html=1;" vertex="1" parent="1">
          <mxGeometry x="100" y="350" width="100" height="20" as="geometry" />
        </mxCell>
      </root>
    </mxGraphModel>
  </diagram>
</mxfile>
